# xmcd
#
# Track frame offsets: 
#        150
#        11942
#        25245
#        40290
#        56280
#        72992
#        90442
#        101412
#        114242
#        134372
#        146785
#        160717
#        176610
#        197357
#
# Disc length: 2821 seconds
#
# Revision: 3
# Processed by: cddbd v1.5.2PL0 Copyright (c) Steve Scherf et al.
# Submitted via: ExactAudioCopy v1.0b1
#
DISCID=b40b030e
DTITLE=Johnny Dyer feat Rick Holmstrom - Listen Up
DYEAR=1994
DGENRE=Blues
TTITLE0=Listen Up
TTITLE1=Hands Off
TTITLE2=Drifting Blues
TTITLE3=Guitar Boogie Shuffle Twist
TTITLE4=Mojo Boogie
TTITLE5=Lend Me My Train Fare
TTITLE6=Lookout Holmes
TTITLE7=24 Hours
TTITLE8=Stranded In St. Louis
TTITLE9=On Your Rocker
TTITLE10=Pretty Thing
TTITLE11=Little Girl Won't Quit
TTITLE12=Blue Midnight
TTITLE13=BBQ At J.D.'s
EXTD=
EXTT0=
EXTT1=
EXTT2=
EXTT3=
EXTT4=
EXTT5=
EXTT6=
EXTT7=
EXTT8=
EXTT9=
EXTT10=
EXTT11=
EXTT12=
EXTT13=
PLAYORDER=
